<svg xmlns="http://www.w3.org/2000/svg" id="xaOzvYK4DZU-ZTle8ra1z" width="1048" height="712" viewBox="2572 2300 1048 712" style="width: 100%; height: 100%; font-family: Inter, arial, sans-serif;"><g id="wrapper" transform="translate(0, 0) scale(1)"><g id="objects"><g transform="translate(2672, 2400)"><g><path d="M0,5A5,5,90,0,1,5,0L843,0A5,5,90,0,1,848,5L848,507A5,5,-270,0,1,843,512L5,512A5,5,90,0,1,0,507Z" fill="#f1f1f1" stroke="#dadada" stroke-width="2" stroke-dasharray="7,5"/></g><g transform="translate(10, 10)"><g transform="translate(0,-4)"><text y="236.5"><tspan dy="19" x="414" text-anchor="middle"><tspan text-decoration="none" font-style="normal" font-size="14px" font-weight="normal" style="font-weight: normal;" fill="gray"> </tspan></tspan></text></g></g><rect width="844" height="508" fill="none" stroke="none"/><g transform="translate(-5,-5)"><path d="M0,5A5,5,90,0,1,5,0L853,0A5,5,90,0,1,858,5L858,517A5,5,-270,0,1,853,522L5,522A5,5,90,0,1,0,517Z" fill="transparent"/></g><g transform="translate(5,5)"><path d="M0,5A5,5,90,0,1,5,0L833,0A5,5,90,0,1,838,5L838,497A5,5,-270,0,1,833,502L5,502A5,5,90,0,1,0,497Z" fill="transparent"/></g></g><g id="icn_GWGlQm5vq8yOtW318zhBW" transform="translate(2768,2544)"><g transform="translate(0,0)"><path d="&#xA;    M 0, 21.248&#xA;    C 0, 3.750272 3.750272, 0 21.248, 0&#xA;    L 170.752, 0&#xA;    C 188.249728, 0 192, 3.750272 192, 21.248&#xA;    L 192, 42.751999999999995&#xA;    C 192, 60.249728 188.249728, 64 170.752, 64&#xA;    L 21.248, 64&#xA;    C 3.750272, 64 0, 60.249728 0, 42.751999999999995&#xA;    L 0, 21.248&#xA;  " stroke-width="2" stroke="#bcdefb" fill="#e6f3fe"/></g><rect width="202" height="74" x="-5" y="-5" fill="transparent"/><rect width="182" height="54" x="5" y="5" fill="transparent"/><g><svg viewBox="0 0 50 50" width="44" height="44" x="17.51666259765625" y="10"><svg id="fEUSsqOFNU_mvRArUYh7d" xmlns="http://www.w3.org/2000/svg" viewBox="4.2 6.95 41.53 37.22" width="50" height="50"><g fill="#61DAFB" fill-rule="evenodd"><path d="M45 25.581c0-2.65-3.318-5.16-8.406-6.718 1.174-5.186.652-9.311-1.647-10.632-.53-.31-1.15-.457-1.826-.457v1.819c.375 0 .676.073.93.211 1.108.637 1.589 3.058 1.214 6.173-.09.766-.236 1.573-.416 2.397a39.511 39.511 0 0 0-5.177-.89 39.778 39.778 0 0 0-3.392-4.076c2.658-2.47 5.153-3.824 6.849-3.824V7.766c-2.242 0-5.177 1.598-8.145 4.37C22.016 9.381 19.08 7.8 16.839 7.8v1.818c1.687 0 4.19 1.345 6.848 3.8a38.51 38.51 0 0 0-3.367 4.068 38.082 38.082 0 0 0-5.185.897 24.587 24.587 0 0 1-.424-2.365c-.384-3.114.09-5.536 1.19-6.18.245-.147.563-.212.938-.212V7.807c-.685 0-1.305.147-1.843.457-2.291 1.32-2.805 5.438-1.623 10.607C8.303 20.436 5 22.939 5 25.58c0 2.65 3.318 5.161 8.406 6.718-1.174 5.186-.652 9.311 1.647 10.632.53.31 1.15.457 1.835.457 2.242 0 5.177-1.598 8.145-4.37 2.967 2.756 5.903 4.337 8.145 4.337.685 0 1.304-.146 1.842-.456 2.291-1.321 2.805-5.439 1.623-10.608C41.698 30.734 45 28.223 45 25.581zm-10.616-5.438a36.697 36.697 0 0 1-1.1 3.22 38.6 38.6 0 0 0-1.068-1.956 44.246 44.246 0 0 0-1.174-1.908c1.157.171 2.274.383 3.342.644zm-3.734 8.683a43.437 43.437 0 0 1-1.965 3.115 42.462 42.462 0 0 1-7.354.008 44.968 44.968 0 0 1-1.973-3.098 42.514 42.514 0 0 1-1.696-3.245 43.437 43.437 0 0 1 3.653-6.368 42.422 42.422 0 0 1 7.354-.008c.677.97 1.337 2.005 1.973 3.098a42.514 42.514 0 0 1 1.696 3.245 45.66 45.66 0 0 1-1.688 3.253zm2.634-1.06c.44 1.093.815 2.185 1.125 3.245-1.068.261-2.193.481-3.36.652.4-.627.8-1.272 1.175-1.932.375-.652.725-1.313 1.06-1.965zm-8.268 8.7a33.627 33.627 0 0 1-2.266-2.61c.733.033 1.484.058 2.242.058.766 0 1.524-.017 2.266-.057a31.828 31.828 0 0 1-2.242 2.609zm-6.066-4.803a36.786 36.786 0 0 1-3.343-.644 36.73 36.73 0 0 1 1.101-3.22c.334.652.685 1.304 1.068 1.957.383.652.775 1.288 1.174 1.907zm6.025-16.966a33.606 33.606 0 0 1 2.267 2.609A50.492 50.492 0 0 0 25 17.248c-.766 0-1.525.017-2.267.058a31.828 31.828 0 0 1 2.242-2.61zm-6.033 4.802a45.115 45.115 0 0 0-2.234 3.889 34.936 34.936 0 0 1-1.125-3.245 39.603 39.603 0 0 1 3.36-.644zm-7.379 10.208C8.677 28.475 6.81 26.86 6.81 25.58c0-1.28 1.867-2.903 4.753-4.126.702-.301 1.468-.57 2.259-.823a39.16 39.16 0 0 0 1.834 4.965 38.61 38.61 0 0 0-1.81 4.941 24.796 24.796 0 0 1-2.283-.831zm4.387 11.65c-1.109-.635-1.59-3.057-1.215-6.171.09-.767.236-1.574.416-2.397 1.598.391 3.343.693 5.177.888a39.765 39.765 0 0 0 3.392 4.077c-2.658 2.47-5.153 3.824-6.849 3.824-.367-.008-.677-.082-.921-.22zm19.34-6.212c.383 3.114-.09 5.536-1.19 6.18-.246.147-.564.212-.939.212-1.687 0-4.19-1.345-6.848-3.8a38.52 38.52 0 0 0 3.367-4.068 38.082 38.082 0 0 0 5.186-.897c.187.824.334 1.615.423 2.373zm3.139-5.438c-.702.301-1.468.57-2.259.823a39.146 39.146 0 0 0-1.835-4.965 38.595 38.595 0 0 0 1.81-4.941c.808.253 1.574.53 2.292.831 2.886 1.232 4.753 2.846 4.753 4.126-.008 1.28-1.875 2.903-4.761 4.126z"/><path d="M24.992 29.307a3.726 3.726 0 1 0 0-7.452 3.726 3.726 0 0 0 0 7.452z"/></g></svg></svg><g transform="translate(85.51666259765625, 10)"><g transform="translate(0,-4)"><text y="12.5"><tspan dy="19" x="0" text-anchor="start"><tspan text-decoration="none" font-style="normal" font-size="14px" font-weight="normal" style="font-weight: normal;" fill="#000000">React             </tspan></tspan></text></g></g><line x1="72.76666259765625" y1="7.25" x2="72.76666259765625" y2="56.75" stroke="#bcdefb" stroke-width="1.5px" stroke-linecap="round"/></g></g><g id="icn_TyY6OufoQHLn9KUjhL61F" transform="translate(2768,2416)"><g transform="translate(0,0)"><path d="&#xA;    M 0, 21.248&#xA;    C 0, 3.750272 3.750272, 0 21.248, 0&#xA;    L 170.752, 0&#xA;    C 188.249728, 0 192, 3.750272 192, 21.248&#xA;    L 192, 42.751999999999995&#xA;    C 192, 60.249728 188.249728, 64 170.752, 64&#xA;    L 21.248, 64&#xA;    C 3.750272, 64 0, 60.249728 0, 42.751999999999995&#xA;    L 0, 21.248&#xA;  " stroke-width="2" stroke-dasharray="7,5" stroke="#d3d3d3" fill="#f1f1f1"/></g><rect width="202" height="74" x="-5" y="-5" fill="transparent"/><rect width="182" height="54" x="5" y="5" fill="transparent"/><g><svg viewBox="0 0 50 50" width="44" height="44" x="14.800003051757812" y="10"><svg id="4LDGT4jg5ynNSNQgbY1cJ" xmlns="http://www.w3.org/2000/svg" viewBox="0 0 512 512" width="50" height="50"><path fill="#232F3D" d="M496 128v16a8 8 0 0 1-8 8h-24v12c0 6.627-5.373 12-12 12H60c-6.627 0-12-5.373-12-12v-12H24a8 8 0 0 1-8-8v-16a8 8 0 0 1 4.941-7.392l232-88a7.996 7.996 0 0 1 6.118 0l232 88A8 8 0 0 1 496 128zm-24 304H40c-13.255 0-24 10.745-24 24v16a8 8 0 0 0 8 8h464a8 8 0 0 0 8-8v-16c0-13.255-10.745-24-24-24zM96 192v192H60c-6.627 0-12 5.373-12 12v20h416v-20c0-6.627-5.373-12-12-12h-36V192h-64v192h-64V192h-64v192h-64V192H96z"/></svg></svg><g transform="translate(82.80000305175781, 10)"><g transform="translate(0,-4)"><text y="3"><tspan dy="19" x="0" text-anchor="start"><tspan text-decoration="none" font-style="normal" font-size="14px" font-weight="normal" style="font-weight: normal;" fill="#000000">Banque de      </tspan></tspan><tspan dy="19" x="0" text-anchor="start"><tspan text-decoration="none" font-style="normal" font-size="14px" font-weight="normal" style="font-weight: normal;" fill="#000000">composants</tspan></tspan></text></g></g><line x1="70.05000305175781" y1="7.25" x2="70.05000305175781" y2="56.75" stroke="#d3d3d3" stroke-width="1.5px" stroke-linecap="round"/></g></g><g id="icn_56oFMIUsQCiyGcxG5fvtv" transform="translate(3056,2544)"><g transform="translate(0,0)"><path d="&#xA;    M 0, 21.248&#xA;    C 0, 3.750272 3.750272, 0 21.248, 0&#xA;    L 170.752, 0&#xA;    C 188.249728, 0 192, 3.750272 192, 21.248&#xA;    L 192, 42.751999999999995&#xA;    C 192, 60.249728 188.249728, 64 170.752, 64&#xA;    L 21.248, 64&#xA;    C 3.750272, 64 0, 60.249728 0, 42.751999999999995&#xA;    L 0, 21.248&#xA;  " stroke-width="2" stroke="#c2e1d2" fill="#e8f4ee"/></g><rect width="202" height="74" x="-5" y="-5" fill="transparent"/><rect width="182" height="54" x="5" y="5" fill="transparent"/><g><svg viewBox="0 0 50 50" width="44" height="44" x="15.26666259765625" y="10"><svg id="7epERGB7I3N3q9fs3Rb3W" xmlns="http://www.w3.org/2000/svg" viewBox="4.95 19.08 41.53 12.91" width="50" height="50"><g fill="none" fill-rule="evenodd"><path fill="#83CD29" d="M42.547 23.938a.555.555 0 0 0-.276.068l-2.652 1.531a.559.559 0 0 0-.276.485v3.057a.56.56 0 0 0 .276.484l.693.4c.336.166.46.163.614.163.498 0 .782-.302.782-.827V26.28c0-.043-.037-.073-.079-.073h-.332c-.042 0-.079.03-.079.073v3.018c0 .233-.242.467-.636.27l-.72-.422c-.026-.014-.046-.039-.046-.068v-3.057a.09.09 0 0 1 .045-.073l2.647-1.526a.078.078 0 0 1 .079 0l2.646 1.526a.09.09 0 0 1 .045.073v3.057c0 .03-.015.06-.04.073l-2.651 1.526a.082.082 0 0 1-.08 0l-.68-.405a.071.071 0 0 0-.068 0 1.753 1.753 0 0 1-.4.18c-.043.015-.11.039.023.113l.89.523a.544.544 0 0 0 .552 0l2.651-1.526a.56.56 0 0 0 .276-.484v-3.057a.559.559 0 0 0-.276-.484l-2.652-1.532a.552.552 0 0 0-.276-.068Z"/><path fill="#83CD29" d="M43.257 26.123c-.756 0-1.205.322-1.205.856 0 .58.446.739 1.17.81.868.086.935.213.935.384 0 .296-.235.422-.793.422-.701 0-.855-.175-.907-.524-.006-.037-.035-.067-.073-.067h-.344a.08.08 0 0 0-.078.078c0 .447.242.975 1.402.975.839 0 1.323-.33 1.323-.907 0-.572-.391-.726-1.205-.833-.823-.11-.901-.162-.901-.355 0-.159.066-.372.676-.372.544 0 .745.118.827.485a.077.077 0 0 0 .073.062h.344c.021 0 .042-.013.056-.029.015-.016.025-.034.023-.056-.053-.632-.475-.929-1.323-.929Z"/><path fill="#404137" d="M26.956 19.93a.17.17 0 0 0-.146.084.171.171 0 0 0-.023.084v4.308a.114.114 0 0 1-.115.117.117.117 0 0 1-.06-.016l-.703-.405a.338.338 0 0 0-.338 0l-2.81 1.621a.346.346 0 0 0-.169.299v3.243c0 .121.064.232.17.293l2.809 1.621a.336.336 0 0 0 .338 0l2.81-1.621a.337.337 0 0 0 .168-.293v-8.086a.344.344 0 0 0-.174-.298l-1.673-.935a.163.163 0 0 0-.084-.017ZM8.882 23.977a.318.318 0 0 0-.152.04l-2.81 1.62a.337.337 0 0 0-.169.294l.006 4.352c0 .06.03.117.084.146a.164.164 0 0 0 .169 0l1.667-.957a.344.344 0 0 0 .174-.293v-2.032c0-.122.064-.233.17-.293l.709-.411a.333.333 0 0 1 .337 0l.71.411a.336.336 0 0 1 .169.293v2.032c0 .121.07.231.174.293l1.667.957a.164.164 0 0 0 .169 0 .17.17 0 0 0 .085-.146l.005-4.352a.336.336 0 0 0-.169-.293l-2.81-1.622a.316.316 0 0 0-.152-.04h-.033Zm25.247.04a.337.337 0 0 0-.168.044l-2.81 1.622a.337.337 0 0 0-.17.293v3.243a.34.34 0 0 0 .175.293l2.788 1.587a.338.338 0 0 0 .332.006l1.689-.94a.171.171 0 0 0 .09-.147.167.167 0 0 0-.084-.146l-2.827-1.622a.182.182 0 0 1-.09-.152v-1.013c0-.06.038-.116.09-.147l.878-.506a.17.17 0 0 1 .17 0l.878.506a.169.169 0 0 1 .084.147v.8a.167.167 0 0 0 .085.146c.052.03.116.03.169 0l1.683-.98a.338.338 0 0 0 .17-.293v-.782a.338.338 0 0 0-.17-.293l-2.793-1.622a.335.335 0 0 0-.169-.045Zm-8.4 2.42c.014 0 .031.004.044.012l.963.557a.087.087 0 0 1 .046.073v1.115c0 .03-.02.058-.046.073l-.963.558a.086.086 0 0 1-.084 0l-.963-.558a.087.087 0 0 1-.045-.073V27.08c0-.03.02-.058.045-.073l.963-.557a.075.075 0 0 1 .04-.012Z"/><path fill="#83CD29" d="M17.322 24a.337.337 0 0 0-.169.045l-2.81 1.616a.346.346 0 0 0-.169.299v3.243c0 .121.064.232.17.293l2.809 1.621a.337.337 0 0 0 .338 0l2.81-1.621a.338.338 0 0 0 .168-.293V25.96a.346.346 0 0 0-.168-.299l-2.81-1.616a.338.338 0 0 0-.17-.045Zm16.802 2.894c-.012 0-.024 0-.034.006l-.54.315a.066.066 0 0 0-.034.057v.62c0 .022.013.044.034.055l.54.31c.02.012.042.012.062 0l.54-.31a.066.066 0 0 0 .034-.056v-.62a.066.066 0 0 0-.034-.056l-.54-.315c-.01-.006-.017-.005-.028-.005Z"/></g></svg></svg><g transform="translate(83.26666259765625, 10)"><g transform="translate(0,-4)"><text y="12.5"><tspan dy="19" x="0" text-anchor="start"><tspan text-decoration="none" font-style="normal" font-size="14px" font-weight="normal" style="font-weight: normal;" fill="#000000">Node.js           </tspan></tspan></text></g></g><line x1="70.51666259765625" y1="7.25" x2="70.51666259765625" y2="56.75" stroke="#c2e1d2" stroke-width="1.5px" stroke-linecap="round"/></g></g><g id="icn_oWUDsgEcKEVGZnFlhNXKg" transform="translate(3056,2672)"><g transform="translate(0,0)"><path d="&#xA;    M 0, 21.248&#xA;    C 0, 3.750272 3.750272, 0 21.248, 0&#xA;    L 170.752, 0&#xA;    C 188.249728, 0 192, 3.750272 192, 21.248&#xA;    L 192, 42.751999999999995&#xA;    C 192, 60.249728 188.249728, 64 170.752, 64&#xA;    L 21.248, 64&#xA;    C 3.750272, 64 0, 60.249728 0, 42.751999999999995&#xA;    L 0, 21.248&#xA;  " stroke-width="2" stroke="#fad2b8" fill="#fdefe5"/></g><rect width="202" height="74" x="-5" y="-5" fill="transparent"/><rect width="182" height="54" x="5" y="5" fill="transparent"/><g><svg viewBox="0 0 50 50" width="44" height="44" x="16.5" y="10"><svg id="G6STjwEDxVcoXLSLXhNNW" xmlns="http://www.w3.org/2000/svg" viewBox="8.39 4.2 33.16 41.53" width="50" height="50"><g fill="#232F3D" fill-rule="evenodd"><path d="M31.772 42.638c-1.138.193-2.35.337-3.602.428-.508.037-1.024.064-1.546.084a47.68 47.68 0 0 1-3.186 0c-.524-.02-1.04-.047-1.547-.084a38.177 38.177 0 0 1-3.603-.428c-4.471-.758-7.25-2.348-7.25-4.148V12.986c2.731 1.728 7.964 2.803 13.993 2.803 6.022 0 11.189-1.058 13.93-2.768V38.49c0 1.834-2.687 3.385-7.189 4.148zM25.031 6.822c7.781 0 12.865 1.99 13.771 4.039-1.52 1.518-6.387 3.106-13.772 3.106-7.376 0-12.326-1.622-13.803-3.128l-.033.032c.897-2.052 6.008-4.049 13.836-4.049zm0-1.822C15.719 5 9.216 7.677 9.216 11.51v26.98c0 1.664 1.139 4.652 8.767 5.946 1.195.201 2.465.353 3.776.447a45.14 45.14 0 0 0 4.93.088c.547-.02 1.083-.05 1.612-.088a40.276 40.276 0 0 0 3.776-.447c7.575-1.286 8.707-4.277 8.707-5.946V11.51C40.784 7.677 34.305 5 25.03 5z" clip-rule="evenodd"/><path d="M14.745 34.03v4.333h.893v-3.04h.012l1.062 3.04h.734l1.063-3.071h.012v3.071h.892V34.03h-1.341l-.96 2.98H17.1l-1.013-2.98h-1.342zm6.964 4.722 1.311-3.527h-.892l-.686 2.149h-.012l-.71-2.149h-.917l1.099 2.944a.52.52 0 0 1 .036.194.42.42 0 0 1-.085.255c-.053.077-.136.121-.249.134-.085.004-.17.002-.255-.006a53.63 53.63 0 0 1-.249-.025v.71c.09.009.176.015.261.019.09.008.178.012.267.012.296 0 .527-.055.692-.164.166-.11.296-.291.389-.546zm2.34-1.827h-.922c-.004.267.044.497.145.692.101.194.237.354.407.48.174.125.372.216.595.272.226.061.46.091.698.091.295 0 .554-.034.777-.103.226-.069.415-.164.564-.285.154-.126.27-.273.346-.443.077-.17.116-.354.116-.553 0-.242-.053-.44-.158-.594a1.248 1.248 0 0 0-.364-.377 1.534 1.534 0 0 0-.431-.2 3.45 3.45 0 0 0-.334-.091 93.034 93.034 0 0 1-.662-.17 2.588 2.588 0 0 1-.394-.134.434.434 0 0 1-.189-.145.39.39 0 0 1-.048-.207c0-.093.02-.17.06-.23a.541.541 0 0 1 .152-.152.65.65 0 0 1 .213-.085c.077-.016.154-.024.23-.024.118 0 .225.01.322.03.101.02.19.054.267.103s.138.115.182.2a.736.736 0 0 1 .085.322h.923c0-.25-.049-.463-.146-.637a1.209 1.209 0 0 0-.382-.437 1.585 1.585 0 0 0-.559-.243 2.62 2.62 0 0 0-.65-.079 2.22 2.22 0 0 0-.582.079 1.629 1.629 0 0 0-.522.243c-.154.109-.279.247-.376.412-.093.162-.14.355-.14.577 0 .198.037.368.11.51.076.138.175.253.297.346.121.093.259.17.413.23.154.057.311.106.473.146.158.045.314.085.467.122.154.036.292.079.413.127.122.049.219.11.292.182a.375.375 0 0 1 .115.286c0 .109-.028.2-.085.273a.612.612 0 0 1-.212.164c-.085.04-.176.068-.274.085a2.197 2.197 0 0 1-.273.018c-.125 0-.247-.014-.364-.043a1.03 1.03 0 0 1-.31-.14.732.732 0 0 1-.285-.618zm6.145.285a1.31 1.31 0 0 0 .195-.407c.048-.162.073-.358.073-.589 0-.19-.023-.374-.067-.552a1.384 1.384 0 0 0-.2-.473.995.995 0 0 0-.365-.334 1.09 1.09 0 0 0-.546-.128c-.214 0-.397.043-.546.128a.996.996 0 0 0-.364.334 1.477 1.477 0 0 0-.207.473 2.483 2.483 0 0 0 0 1.087c.045.17.113.323.206.46.094.138.215.25.365.335.15.08.332.121.546.121.101 0 .178-.004.23-.012a.512.512 0 0 0 .152-.049l-.406-.37.443-.473.492.449zm.14 1.001c-.287.166-.637.25-1.05.25-.332 0-.631-.057-.898-.17a1.96 1.96 0 0 1-.668-.48 2.114 2.114 0 0 1-.419-.71 2.642 2.642 0 0 1-.146-.887c0-.323.049-.623.146-.898a2.16 2.16 0 0 1 .419-.728c.182-.207.405-.369.668-.486.267-.117.566-.176.898-.176.336 0 .635.059.898.176.263.117.486.28.668.486.182.206.322.449.419.728.097.275.146.575.146.898 0 .316-.049.61-.146.88-.097.272-.237.51-.419.717l.54.491-.443.462-.613-.553zm1.732-4.182v4.334h3.065v-.801H33.02v-3.533h-.953z"/></g></svg></svg><g transform="translate(84.5, 10)"><g transform="translate(0,-4)"><text y="12.5"><tspan dy="19" x="0" text-anchor="start"><tspan text-decoration="none" font-style="normal" font-size="14px" font-weight="normal" style="font-weight: normal;" fill="#000000">MySQL           </tspan></tspan></text></g></g><line x1="71.75" y1="7.25" x2="71.75" y2="56.75" stroke="#fad2b8" stroke-width="1.5px" stroke-linecap="round"/></g></g><g id="icn_iNjpFq9zKL0Or07oJ1jlf" transform="translate(3056,2800)"><g transform="translate(0,0)"><path d="&#xA;    M 0, 21.248&#xA;    C 0, 3.750272 3.750272, 0 21.248, 0&#xA;    L 170.752, 0&#xA;    C 188.249728, 0 192, 3.750272 192, 21.248&#xA;    L 192, 42.751999999999995&#xA;    C 192, 60.249728 188.249728, 64 170.752, 64&#xA;    L 21.248, 64&#xA;    C 3.750272, 64 0, 60.249728 0, 42.751999999999995&#xA;    L 0, 21.248&#xA;  " stroke-width="2" stroke="#e3d5f0" fill="#f5eff9"/></g><rect width="202" height="74" x="-5" y="-5" fill="transparent"/><rect width="182" height="54" x="5" y="5" fill="transparent"/><g><svg viewBox="0 0 50 50" width="44" height="44" x="14.73333740234375" y="10"><svg id="XqN0NSE7t5mehz1feFolY" xmlns="http://www.w3.org/2000/svg" fill="none" viewBox="0 0 24 24" width="50" height="50"><g clip-path="url(#EeUFfcsEDuTVVHLKjz0Oz)"><path fill="#231E21" d="M22.4 19.9v-9.6h-9.9V4.1h1.6V0H9.9v4.1h1.6v6.2H1.6v9.6H0V24h4.2v-4.1H2.6v-8.6h8.9v5.5H9.9v4.1h4.2v-4.1h-1.6v-5.5h8.9v8.6h-1.6V24H24v-4.1h-1.6Z"/></g><defs><clipPath id="EeUFfcsEDuTVVHLKjz0Oz"><path fill="#fff" d="M0 0h24v24H0z"/></clipPath></defs></svg></svg><g transform="translate(82.73333740234375, 10)"><g transform="translate(0,-4)"><text y="12.5"><tspan dy="19" x="0" text-anchor="start"><tspan text-decoration="none" font-style="normal" font-size="14px" font-weight="normal" style="font-weight: normal;" fill="#000000">Adminer          </tspan></tspan></text></g></g><line x1="69.98333740234375" y1="7.25" x2="69.98333740234375" y2="56.75" stroke="#e3d5f0" stroke-width="1.5px" stroke-linecap="round"/></g></g><g id="arr_WqaMyuydnTX5thnLx0Pq0"><marker id="arrowhead_arr_WqaMyuydnTX5thnLx0Pq0" refX="1" refY="3" orient="auto" markerWidth="8" markerHeight="8"><path d="M2.91922181,1.64495663 L4.49787879,4.07365967 C4.64837316,4.30518948 4.58268096,4.61488128 4.35115115,4.76537565 C4.27004602,4.81809399 4.17538993,4.84615385 4.07865698,4.84615385 L0.921343022,4.84615385 C0.645200647,4.84615385 0.421343022,4.62229622 0.421343022,4.34615385 C0.421343022,4.24942089 0.44940288,4.1547648 0.502121214,4.07365967 L2.08077819,1.64495663 C2.23127257,1.41342682 2.54096436,1.34773462 2.77249418,1.498229 C2.83112579,1.53633954 2.88111126,1.58632502 2.91922181,1.64495663 Z" fill="hsl(206, 100%, 50.0%)" transform="translate(2.500000, 2.923077) rotate(90.000000) translate(-2.500000, -2.923077)"/></marker><path id="arr_WqaMyuydnTX5thnLx0Pq0_path" style="stroke-width: 3px; stroke: rgb(0, 144, 255);" stroke-linecap="round" marker-end="url(#arrowhead_arr_WqaMyuydnTX5thnLx0Pq0)" d="M 2864 2485 L 2864 2532  " fill="none" pointer-events="stroke" stroke-linejoin="round" stroke-dasharray="6,6"/><path style="stroke-width: 4px; stroke: transparent;" d="M 2864 2485 L 2864 2532  " fill="none" pointer-events="stroke"/></g><g id="arr_a0FJyTaKv9qm0DOF8Lfzo"><marker id="arrowhead_arr_a0FJyTaKv9qm0DOF8Lfzo" refX="1" refY="3" orient="auto" markerWidth="8" markerHeight="8"><path d="M2.91922181,1.64495663 L4.49787879,4.07365967 C4.64837316,4.30518948 4.58268096,4.61488128 4.35115115,4.76537565 C4.27004602,4.81809399 4.17538993,4.84615385 4.07865698,4.84615385 L0.921343022,4.84615385 C0.645200647,4.84615385 0.421343022,4.62229622 0.421343022,4.34615385 C0.421343022,4.24942089 0.44940288,4.1547648 0.502121214,4.07365967 L2.08077819,1.64495663 C2.23127257,1.41342682 2.54096436,1.34773462 2.77249418,1.498229 C2.83112579,1.53633954 2.88111126,1.58632502 2.91922181,1.64495663 Z" fill="hsl(151, 55.0%, 41.5%)" transform="translate(2.500000, 2.923077) rotate(90.000000) translate(-2.500000, -2.923077)"/></marker><path id="arr_a0FJyTaKv9qm0DOF8Lfzo_path" style="stroke-width: 3px; stroke: rgb(48, 164, 108);" stroke-linecap="round" marker-end="url(#arrowhead_arr_a0FJyTaKv9qm0DOF8Lfzo)" d="M 2965 2584 L 3044 2584  " fill="none" pointer-events="stroke" stroke-linejoin="round"/><path style="stroke-width: 4px; stroke: transparent;" d="M 2965 2584 L 3044 2584  " fill="none" pointer-events="stroke"/></g><g id="arr_rTSIDVSb0lkwx2bkpNjM6"><marker id="arrowhead_arr_rTSIDVSb0lkwx2bkpNjM6" refX="1" refY="3" orient="auto" markerWidth="8" markerHeight="8"><path d="M2.91922181,1.64495663 L4.49787879,4.07365967 C4.64837316,4.30518948 4.58268096,4.61488128 4.35115115,4.76537565 C4.27004602,4.81809399 4.17538993,4.84615385 4.07865698,4.84615385 L0.921343022,4.84615385 C0.645200647,4.84615385 0.421343022,4.62229622 0.421343022,4.34615385 C0.421343022,4.24942089 0.44940288,4.1547648 0.502121214,4.07365967 L2.08077819,1.64495663 C2.23127257,1.41342682 2.54096436,1.34773462 2.77249418,1.498229 C2.83112579,1.53633954 2.88111126,1.58632502 2.91922181,1.64495663 Z" fill="hsl(206, 100%, 50.0%)" transform="translate(2.500000, 2.923077) rotate(90.000000) translate(-2.500000, -2.923077)"/></marker><path id="arr_rTSIDVSb0lkwx2bkpNjM6_path" style="stroke-width: 3px; stroke: rgb(0, 144, 255);" stroke-linecap="round" marker-end="url(#arrowhead_arr_rTSIDVSb0lkwx2bkpNjM6)" d="M 3051 2568 L 2972 2568  " fill="none" pointer-events="stroke" stroke-linejoin="round"/><path style="stroke-width: 4px; stroke: transparent;" d="M 3051 2568 L 2972 2568  " fill="none" pointer-events="stroke"/></g><g id="arr_Yv6NAjM8bsM1N6yltHJ1D"><marker id="arrowhead_arr_Yv6NAjM8bsM1N6yltHJ1D" refX="1" refY="3" orient="auto" markerWidth="8" markerHeight="8"><path d="M2.91922181,1.64495663 L4.49787879,4.07365967 C4.64837316,4.30518948 4.58268096,4.61488128 4.35115115,4.76537565 C4.27004602,4.81809399 4.17538993,4.84615385 4.07865698,4.84615385 L0.921343022,4.84615385 C0.645200647,4.84615385 0.421343022,4.62229622 0.421343022,4.34615385 C0.421343022,4.24942089 0.44940288,4.1547648 0.502121214,4.07365967 L2.08077819,1.64495663 C2.23127257,1.41342682 2.54096436,1.34773462 2.77249418,1.498229 C2.83112579,1.53633954 2.88111126,1.58632502 2.91922181,1.64495663 Z" fill="hsl(24, 94.0%, 50.0%)" transform="translate(2.500000, 2.923077) rotate(90.000000) translate(-2.500000, -2.923077)"/></marker><path id="arr_Yv6NAjM8bsM1N6yltHJ1D_path" style="stroke-width: 3px; stroke: rgb(247, 104, 8);" stroke-linecap="round" marker-end="url(#arrowhead_arr_Yv6NAjM8bsM1N6yltHJ1D)" d="M 3144 2613 L 3144 2660  " fill="none" pointer-events="stroke" stroke-linejoin="round"/><path style="stroke-width: 4px; stroke: transparent;" d="M 3144 2613 L 3144 2660  " fill="none" pointer-events="stroke"/></g><g id="arr_UyQD8lKRhY0KwnEEHKIXd"><marker id="arrowhead_arr_UyQD8lKRhY0KwnEEHKIXd" refX="1" refY="3" orient="auto" markerWidth="8" markerHeight="8"><path d="M2.91922181,1.64495663 L4.49787879,4.07365967 C4.64837316,4.30518948 4.58268096,4.61488128 4.35115115,4.76537565 C4.27004602,4.81809399 4.17538993,4.84615385 4.07865698,4.84615385 L0.921343022,4.84615385 C0.645200647,4.84615385 0.421343022,4.62229622 0.421343022,4.34615385 C0.421343022,4.24942089 0.44940288,4.1547648 0.502121214,4.07365967 L2.08077819,1.64495663 C2.23127257,1.41342682 2.54096436,1.34773462 2.77249418,1.498229 C2.83112579,1.53633954 2.88111126,1.58632502 2.91922181,1.64495663 Z" fill="hsl(151, 55.0%, 41.5%)" transform="translate(2.500000, 2.923077) rotate(90.000000) translate(-2.500000, -2.923077)"/></marker><path id="arr_UyQD8lKRhY0KwnEEHKIXd_path" style="stroke-width: 3px; stroke: rgb(48, 164, 108);" stroke-linecap="round" marker-end="url(#arrowhead_arr_UyQD8lKRhY0KwnEEHKIXd)" d="M 3160 2667 L 3160 2620  " fill="none" pointer-events="stroke" stroke-linejoin="round"/><path style="stroke-width: 4px; stroke: transparent;" d="M 3160 2667 L 3160 2620  " fill="none" pointer-events="stroke"/></g><g id="arr_KHmrBlNgifTkr8lz9glBd"><marker id="arrowhead_arr_KHmrBlNgifTkr8lz9glBd" refX="1" refY="3" orient="auto" markerWidth="8" markerHeight="8"><path d="M2.91922181,1.64495663 L4.49787879,4.07365967 C4.64837316,4.30518948 4.58268096,4.61488128 4.35115115,4.76537565 C4.27004602,4.81809399 4.17538993,4.84615385 4.07865698,4.84615385 L0.921343022,4.84615385 C0.645200647,4.84615385 0.421343022,4.62229622 0.421343022,4.34615385 C0.421343022,4.24942089 0.44940288,4.1547648 0.502121214,4.07365967 L2.08077819,1.64495663 C2.23127257,1.41342682 2.54096436,1.34773462 2.77249418,1.498229 C2.83112579,1.53633954 2.88111126,1.58632502 2.91922181,1.64495663 Z" fill="hsl(272, 51.0%, 54.0%)" transform="translate(2.500000, 2.923077) rotate(90.000000) translate(-2.500000, -2.923077)"/></marker><path id="arr_KHmrBlNgifTkr8lz9glBd_path" style="stroke-width: 3px; stroke: rgb(142, 78, 198);" stroke-linecap="round" marker-end="url(#arrowhead_arr_KHmrBlNgifTkr8lz9glBd)" d="M 3160 2741 L 3160 2788  " fill="none" pointer-events="stroke" stroke-linejoin="round"/><path style="stroke-width: 4px; stroke: transparent;" d="M 3160 2741 L 3160 2788  " fill="none" pointer-events="stroke"/></g><g id="arr_b15vP0rP2n8bONL9mZNYj"><marker id="arrowhead_arr_b15vP0rP2n8bONL9mZNYj" refX="1" refY="3" orient="auto" markerWidth="8" markerHeight="8"><path d="M2.91922181,1.64495663 L4.49787879,4.07365967 C4.64837316,4.30518948 4.58268096,4.61488128 4.35115115,4.76537565 C4.27004602,4.81809399 4.17538993,4.84615385 4.07865698,4.84615385 L0.921343022,4.84615385 C0.645200647,4.84615385 0.421343022,4.62229622 0.421343022,4.34615385 C0.421343022,4.24942089 0.44940288,4.1547648 0.502121214,4.07365967 L2.08077819,1.64495663 C2.23127257,1.41342682 2.54096436,1.34773462 2.77249418,1.498229 C2.83112579,1.53633954 2.88111126,1.58632502 2.91922181,1.64495663 Z" fill="hsl(24, 94.0%, 50.0%)" transform="translate(2.500000, 2.923077) rotate(90.000000) translate(-2.500000, -2.923077)"/></marker><path id="arr_b15vP0rP2n8bONL9mZNYj_path" style="stroke-width: 3px; stroke: rgb(247, 104, 8);" stroke-linecap="round" marker-end="url(#arrowhead_arr_b15vP0rP2n8bONL9mZNYj)" d="M 3144 2795 L 3144 2748  " fill="none" pointer-events="stroke" stroke-linejoin="round"/><path style="stroke-width: 4px; stroke: transparent;" d="M 3144 2795 L 3144 2748  " fill="none" pointer-events="stroke"/></g><g id="arr_aStCfqkQKcdL7G04SsKIZ"><marker id="arrowhead_arr_aStCfqkQKcdL7G04SsKIZ" refX="1" refY="3" orient="auto" markerWidth="8" markerHeight="8"><path d="M2.91922181,1.64495663 L4.49787879,4.07365967 C4.64837316,4.30518948 4.58268096,4.61488128 4.35115115,4.76537565 C4.27004602,4.81809399 4.17538993,4.84615385 4.07865698,4.84615385 L0.921343022,4.84615385 C0.645200647,4.84615385 0.421343022,4.62229622 0.421343022,4.34615385 C0.421343022,4.24942089 0.44940288,4.1547648 0.502121214,4.07365967 L2.08077819,1.64495663 C2.23127257,1.41342682 2.54096436,1.34773462 2.77249418,1.498229 C2.83112579,1.53633954 2.88111126,1.58632502 2.91922181,1.64495663 Z" fill="hsl(0, 0%, 52.3%)" transform="translate(2.500000, 2.923077) rotate(90.000000) translate(-2.500000, -2.923077)"/></marker><path id="arr_aStCfqkQKcdL7G04SsKIZ_path" style="stroke-width: 3px; stroke: rgb(133, 133, 133);" stroke-linecap="round" marker-end="url(#arrowhead_arr_aStCfqkQKcdL7G04SsKIZ)" d="M 3253 2568 L 3316 2568  " fill="none" pointer-events="stroke" stroke-linejoin="round" stroke-dasharray="6,6"/><path style="stroke-width: 4px; stroke: transparent;" d="M 3253 2568 L 3316 2568  " fill="none" pointer-events="stroke"/></g><g id="arr_7TuMwT4S0MmB7Zv3BX4Lm"><marker id="arrowhead_arr_7TuMwT4S0MmB7Zv3BX4Lm" refX="1" refY="3" orient="auto" markerWidth="8" markerHeight="8"><path d="M2.91922181,1.64495663 L4.49787879,4.07365967 C4.64837316,4.30518948 4.58268096,4.61488128 4.35115115,4.76537565 C4.27004602,4.81809399 4.17538993,4.84615385 4.07865698,4.84615385 L0.921343022,4.84615385 C0.645200647,4.84615385 0.421343022,4.62229622 0.421343022,4.34615385 C0.421343022,4.24942089 0.44940288,4.1547648 0.502121214,4.07365967 L2.08077819,1.64495663 C2.23127257,1.41342682 2.54096436,1.34773462 2.77249418,1.498229 C2.83112579,1.53633954 2.88111126,1.58632502 2.91922181,1.64495663 Z" fill="hsl(151, 55.0%, 41.5%)" transform="translate(2.500000, 2.923077) rotate(90.000000) translate(-2.500000, -2.923077)"/></marker><path id="arr_7TuMwT4S0MmB7Zv3BX4Lm_path" style="stroke-width: 3px; stroke: rgb(48, 164, 108);" stroke-linecap="round" marker-end="url(#arrowhead_arr_7TuMwT4S0MmB7Zv3BX4Lm)" d="M 3323 2584 L 3260 2584  " fill="none" pointer-events="stroke" stroke-linejoin="round" stroke-dasharray="6,6"/><path style="stroke-width: 4px; stroke: transparent;" d="M 3323 2584 L 3260 2584  " fill="none" pointer-events="stroke"/></g><g id="icn_JenOZXdrtDCCyEqjobLQ2" transform="translate(3328,2544)"><g transform="translate(0,0)"><path d="&#xA;    M 0, 21.248&#xA;    C 0, 3.750272 3.750272, 0 21.248, 0&#xA;    L 154.752, 0&#xA;    C 172.249728, 0 176, 3.750272 176, 21.248&#xA;    L 176, 42.751999999999995&#xA;    C 176, 60.249728 172.249728, 64 154.752, 64&#xA;    L 21.248, 64&#xA;    C 3.750272, 64 0, 60.249728 0, 42.751999999999995&#xA;    L 0, 21.248&#xA;  " stroke-width="2" stroke-dasharray="7,5" stroke="#d1d3d6" fill="#f0f1f2"/></g><rect width="186" height="74" x="-5" y="-5" fill="transparent"/><rect width="166" height="54" x="5" y="5" fill="transparent"/><g><svg viewBox="0 0 50 50" width="39.25" height="44" x="10" y="10"><svg id="fuoUo7F_wzNJ5SAQgs6BD" xmlns="http://www.w3.org/2000/svg" viewBox="7.2 4.2 36.47 41.53" width="50" height="50"><path fill="#232F3D" fill-rule="evenodd" d="M26.35 42.522V35.1l7.814-4.51a.907.907 0 0 0 .454-.787v-9.177l6.453-3.724v17.12l-14.72 8.5zM9.815 16.902l6.453 3.724v9.177c0 .324.173.624.454.786l7.814 4.51v7.423l-14.721-8.5v-17.12zM26.35 25.49l6.453-3.725v7.514l-6.453 3.726V25.49zm-8.267-3.726 6.453 3.726v7.515l-6.453-3.726v-7.515zm7.36 2.064-6.32-3.65 6.32-3.647 6.32 3.648-6.32 3.65zm0-16.874 14.613 8.437-6.478 3.74-7.681-4.434a.91.91 0 0 0-.908 0l-7.681 4.435-6.478-3.74 14.613-8.438zm16.99 7.713L25.896 5.12a.915.915 0 0 0-.908 0L8.454 14.667a.909.909 0 0 0-.454.786v19.093c0 .324.173.623.454.786l16.535 9.547a.906.906 0 0 0 .908 0l16.535-9.547a.909.909 0 0 0 .454-.786V15.453a.909.909 0 0 0-.454-.786z"/></svg></svg><g transform="translate(73.25, 10)"><g transform="translate(0,-4)"><text y="12.5"><tspan dy="19" x="0" text-anchor="start"><tspan text-decoration="none" font-style="normal" font-size="14px" font-weight="normal" style="font-weight: normal;" fill="#000000">Exec Tools         </tspan></tspan></text></g></g><line x1="60.5" y1="7.25" x2="60.5" y2="56.75" stroke="#d1d3d6" stroke-width="1.5px" stroke-linecap="round"/></g></g><g id="icn_HgVsDvSYY9aPi93odw07R" transform="translate(2688,2832)"><g transform="translate(0,0)"><path d="&#xA;    M 0, 21.248&#xA;    C 0, 3.750272 3.750272, 0 21.248, 0&#xA;    L 138.752, 0&#xA;    C 156.249728, 0 160, 3.750272 160, 21.248&#xA;    L 160, 42.751999999999995&#xA;    C 160, 60.249728 156.249728, 64 138.752, 64&#xA;    L 21.248, 64&#xA;    C 3.750272, 64 0, 60.249728 0, 42.751999999999995&#xA;    L 0, 21.248&#xA;  " stroke-width="2" stroke="#dadada" fill="#f1f1f1"/></g><rect width="170" height="74" x="-5" y="-5" fill="transparent"/><rect width="150" height="54" x="5" y="5" fill="transparent"/><g><svg viewBox="0 0 50 50" width="44" height="44" x="22.550003051757812" y="10"><svg id="z6R98M1JEqVB5pdwjYurf" xmlns="http://www.w3.org/2000/svg" viewBox="4.14 10.26 41.6 30.29" width="50" height="50"><g fill="#0091E2" fill-rule="evenodd"><path d="M44.61 21.886c-.11-.093-1.113-.855-3.265-.855-.556 0-1.131.056-1.688.149-.408-2.845-2.764-4.22-2.857-4.295l-.575-.335-.371.54a7.96 7.96 0 0 0-1.02 2.38c-.39 1.617-.149 3.141.667 4.442-.983.558-2.578.688-2.912.707H6.245c-.686 0-1.243.558-1.243 1.245a18.847 18.847 0 0 0 1.15 6.786c.91 2.38 2.264 4.146 4.008 5.224 1.966 1.208 5.176 1.896 8.793 1.896a26.91 26.91 0 0 0 4.88-.446A20.109 20.109 0 0 0 30.213 37a17.478 17.478 0 0 0 4.341-3.57c2.097-2.36 3.34-5 4.249-7.343h.37c2.283 0 3.692-.91 4.472-1.691a4.95 4.95 0 0 0 1.187-1.748l.167-.483-.39-.279z"/><path d="M8.714 23.913h3.528c.167 0 .315-.13.315-.316v-3.158a.313.313 0 0 0-.315-.316H8.714a.313.313 0 0 0-.316.316v3.158c.019.186.149.316.316.316zm4.864 0h3.529c.167 0 .315-.13.315-.316v-3.158a.313.313 0 0 0-.316-.316h-3.528a.313.313 0 0 0-.315.316v3.158c.018.186.148.316.316.316zm4.958 0h3.528c.167 0 .316-.13.316-.316v-3.158a.313.313 0 0 0-.316-.316h-3.528a.313.313 0 0 0-.316.316v3.158c0 .186.13.316.316.316zm4.884 0h3.528c.167 0 .315-.13.315-.316v-3.158a.313.313 0 0 0-.315-.316H23.42a.313.313 0 0 0-.316.316v3.158c0 .186.149.316.316.316zm-9.841-4.514h3.528a.325.325 0 0 0 .315-.316v-3.158a.313.313 0 0 0-.316-.316h-3.528a.313.313 0 0 0-.315.316v3.158c.018.167.148.316.316.316zm4.957 0h3.528a.325.325 0 0 0 .316-.316v-3.158a.313.313 0 0 0-.316-.316h-3.528a.313.313 0 0 0-.316.316v3.158c0 .167.13.316.316.316zm4.884 0h3.528a.325.325 0 0 0 .315-.316v-3.158a.325.325 0 0 0-.315-.316H23.42a.313.313 0 0 0-.316.316v3.158c0 .167.149.316.316.316zm0-4.533h3.528c.167 0 .315-.13.315-.316v-3.158a.325.325 0 0 0-.315-.316H23.42a.313.313 0 0 0-.316.316v3.158c0 .167.149.316.316.316zm4.92 9.047h3.528c.167 0 .316-.13.316-.316v-3.158a.313.313 0 0 0-.316-.316H28.34a.313.313 0 0 0-.315.316v3.158c.018.186.148.316.315.316z"/></g></svg></svg><g transform="translate(90.55000305175781, 10)"><g transform="translate(0,-4)"><text y="12.5"><tspan dy="19" x="0" text-anchor="start"><tspan text-decoration="none" font-style="normal" font-size="14px" font-weight="normal" style="font-weight: normal;" fill="#000000">Docker</tspan></tspan></text></g></g><line x1="77.80000305175781" y1="7.25" x2="77.80000305175781" y2="56.75" stroke="#dadada" stroke-width="1.5px" stroke-linecap="round"/></g></g></g></g></svg>